<svg xmlns="http://www.w3.org/2000/svg" viewBox="0 0 800 420">
  <defs>
    <marker id="arr5" markerWidth="8" markerHeight="6" refX="8" refY="3" orient="auto">
      <polygon points="0 0, 8 3, 0 6" fill="#ff0055"/>
    </marker>
    <marker id="arr5g" markerWidth="8" markerHeight="6" refX="8" refY="3" orient="auto">
      <polygon points="0 0, 8 3, 0 6" fill="#00ff88"/>
    </marker>
  </defs>
  <rect width="800" height="420" fill="#0a0a1a"/>
  <text x="400" y="35" text-anchor="middle" fill="#FFE000" font-family="monospace" font-size="18" font-weight="bold">React StrictMode Bug</text>
  <!-- Bug flow (left) -->
  <text x="200" y="70" text-anchor="middle" fill="#ff0055" font-family="monospace" font-size="14" font-weight="bold">BUG (useRef)</text>
  <rect x="60" y="90" width="280" height="40" rx="5" fill="#1a0a0a" stroke="#ff0055" stroke-width="1.5"/>
  <text x="200" y="115" text-anchor="middle" fill="#fff" font-family="monospace" font-size="11">1. useEffect runs (1st)</text>
  <line x1="200" y1="130" x2="200" y2="145" stroke="#ff0055" stroke-width="1.5" marker-end="url(#arr5)"/>
  <rect x="60" y="150" width="280" height="40" rx="5" fill="#1a0a0a" stroke="#ff0055" stroke-width="1.5"/>
  <text x="200" y="175" text-anchor="middle" fill="#fff" font-family="monospace" font-size="11">2. InputHandler created</text>
  <line x1="200" y1="190" x2="200" y2="205" stroke="#ff0055" stroke-width="1.5" marker-end="url(#arr5)"/>
  <rect x="60" y="210" width="280" height="40" rx="5" fill="#2a0a0a" stroke="#ff0055" stroke-width="2"/>
  <text x="200" y="235" text-anchor="middle" fill="#ff0055" font-family="monospace" font-size="11" font-weight="bold">3. cleanup: destroy()!</text>
  <line x1="200" y1="250" x2="200" y2="265" stroke="#ff0055" stroke-width="1.5" marker-end="url(#arr5)"/>
  <rect x="60" y="270" width="280" height="40" rx="5" fill="#1a0a0a" stroke="#ff0055" stroke-width="1.5"/>
  <text x="200" y="295" text-anchor="middle" fill="#fff" font-family="monospace" font-size="11">4. useEffect runs (2nd)</text>
  <line x1="200" y1="310" x2="200" y2="325" stroke="#ff0055" stroke-width="1.5" marker-end="url(#arr5)"/>
  <rect x="60" y="330" width="280" height="50" rx="5" fill="#2a0000" stroke="#ff0055" stroke-width="2"/>
  <text x="200" y="352" text-anchor="middle" fill="#ff0055" font-family="monospace" font-size="11" font-weight="bold">5. Same ref, no listeners!</text>
  <text x="200" y="370" text-anchor="middle" fill="#ff0055" font-family="monospace" font-size="9">Space key does nothing</text>
  <!-- Fix flow (right) -->
  <text x="600" y="70" text-anchor="middle" fill="#00ff88" font-family="monospace" font-size="14" font-weight="bold">FIX (new in useEffect)</text>
  <rect x="460" y="90" width="280" height="40" rx="5" fill="#0a1a0a" stroke="#00ff88" stroke-width="1.5"/>
  <text x="600" y="115" text-anchor="middle" fill="#fff" font-family="monospace" font-size="11">1. useEffect runs (1st)</text>
  <line x1="600" y1="130" x2="600" y2="145" stroke="#00ff88" stroke-width="1.5" marker-end="url(#arr5g)"/>
  <rect x="460" y="150" width="280" height="40" rx="5" fill="#0a1a0a" stroke="#00ff88" stroke-width="1.5"/>
  <text x="600" y="175" text-anchor="middle" fill="#fff" font-family="monospace" font-size="11">2. new InputHandler()</text>
  <line x1="600" y1="190" x2="600" y2="205" stroke="#00ff88" stroke-width="1.5" marker-end="url(#arr5g)"/>
  <rect x="460" y="210" width="280" height="40" rx="5" fill="#0a1a0a" stroke="#00ff88" stroke-width="1.5"/>
  <text x="600" y="235" text-anchor="middle" fill="#fff" font-family="monospace" font-size="11">3. cleanup: destroy()</text>
  <line x1="600" y1="250" x2="600" y2="265" stroke="#00ff88" stroke-width="1.5" marker-end="url(#arr5g)"/>
  <rect x="460" y="270" width="280" height="40" rx="5" fill="#0a1a0a" stroke="#00ff88" stroke-width="1.5"/>
  <text x="600" y="295" text-anchor="middle" fill="#fff" font-family="monospace" font-size="11">4. useEffect runs (2nd)</text>
  <line x1="600" y1="310" x2="600" y2="325" stroke="#00ff88" stroke-width="1.5" marker-end="url(#arr5g)"/>
  <rect x="460" y="330" width="280" height="50" rx="5" fill="#0a2a0a" stroke="#00ff88" stroke-width="2"/>
  <text x="600" y="352" text-anchor="middle" fill="#00ff88" font-family="monospace" font-size="11" font-weight="bold">5. NEW instance + listeners!</text>
  <text x="600" y="370" text-anchor="middle" fill="#00ff88" font-family="monospace" font-size="9">Space key works!</text>
</svg>